<svg width="1200" height="720" viewBox="0 0 1200 720" fill="none" xmlns="http://www.w3.org/2000/svg">
  <rect width="1200" height="720" fill="#F7F7F8"/>
  <rect x="100" y="80" width="1000" height="560" rx="16" fill="white" stroke="#E5E5E7" stroke-width="2"/>
  <circle cx="600" cy="280" r="120" fill="none" stroke="#3A7BD5" stroke-width="12"/>
  <circle cx="600" cy="280" r="120" fill="none" stroke="#3A7BD5" stroke-width="12" stroke-dasharray="377 377" stroke-dashoffset="94" opacity="0.3"/>
  <text x="600" y="295" font-family="system-ui, sans-serif" font-size="48" font-weight="600" fill="#3A7BD5" text-anchor="middle">15:00</text>
  <rect x="200" y="450" width="800" height="60" rx="30" fill="#3A7BD5" opacity="0.1"/>
  <text x="600" y="487" font-family="system-ui, sans-serif" font-size="20" font-weight="500" fill="#3A7BD5" text-anchor="middle">Start Timer</text>
  <rect x="250" y="540" width="120" height="60" rx="12" fill="#F0F0F2"/>
  <circle cx="290" cy="560" r="8" fill="#3A7BD5"/>
  <rect x="250" y="580" width="80" height="8" rx="4" fill="#E5E5E7"/>
  <rect x="410" y="540" width="120" height="60" rx="12" fill="#F0F0F2"/>
  <circle cx="450" cy="560" r="8" fill="#3A7BD5"/>
  <rect x="410" y="580" width="80" height="8" rx="4" fill="#E5E5E7"/>
  <rect x="570" y="540" width="120" height="60" rx="12" fill="#F0F0F2"/>
  <circle cx="610" cy="560" r="8" fill="#3A7BD5"/>
  <rect x="570" y="580" width="80" height="8" rx="4" fill="#E5E5E7"/>
  <rect x="730" y="540" width="120" height="60" rx="12" fill="#F0F0F2"/>
  <circle cx="770" cy="560" r="8" fill="#3A7BD5" opacity="0.3"/>
  <rect x="730" y="580" width="80" height="8" rx="4" fill="#E5E5E7"/>
  <rect x="890" y="540" width="120" height="60" rx="12" fill="#F0F0F2"/>
  <circle cx="930" cy="560" r="8" fill="#3A7BD5" opacity="0.3"/>
  <rect x="890" y="580" width="80" height="8" rx="4" fill="#E5E5E7"/>
</svg>
