<svg width="1200" height="720" viewBox="0 0 1200 720" fill="none" xmlns="http://www.w3.org/2000/svg">
  <rect width="1200" height="720" fill="#F7F7F8"/>
  <rect x="100" y="80" width="1000" height="560" rx="16" fill="white" stroke="#E5E5E7" stroke-width="2"/>
  <rect x="140" y="120" width="920" height="60" rx="8" fill="#F0F0F2"/>
  <circle cx="180" cy="150" r="20" fill="#3A7BD5" opacity="0.3"/>
  <rect x="220" y="140" width="300" height="20" rx="4" fill="#3A7BD5" opacity="0.2"/>
  <rect x="140" y="220" width="280" height="140" rx="12" fill="#F7F7F8"/>
  <circle cx="200" cy="270" r="15" fill="#3A7BD5"/>
  <rect x="230" y="260" width="160" height="12" rx="4" fill="#E5E5E7"/>
  <rect x="230" y="285" width="120" height="8" rx="4" fill="#E5E5E7"/>
  <rect x="460" y="220" width="280" height="140" rx="12" fill="#F7F7F8"/>
  <circle cx="520" cy="270" r="15" fill="#3A7BD5"/>
  <rect x="550" y="260" width="160" height="12" rx="4" fill="#E5E5E7"/>
  <rect x="550" y="285" width="120" height="8" rx="4" fill="#E5E5E7"/>
  <rect x="780" y="220" width="280" height="140" rx="12" fill="#F7F7F8"/>
  <circle cx="840" cy="270" r="15" fill="#3A7BD5" opacity="0.3"/>
  <rect x="870" y="260" width="160" height="12" rx="4" fill="#E5E5E7"/>
  <rect x="870" y="285" width="120" height="8" rx="4" fill="#E5E5E7"/>
  <rect x="140" y="400" width="920" height="200" rx="12" fill="#F0F0F2"/>
  <rect x="180" y="440" width="400" height="16" rx="4" fill="#3A7BD5" opacity="0.2"/>
  <rect x="180" y="480" width="300" height="12" rx="4" fill="#E5E5E7"/>
  <rect x="180" y="510" width="350" height="12" rx="4" fill="#E5E5E7"/>
  <rect x="180" y="540" width="280" height="12" rx="4" fill="#E5E5E7"/>
</svg>
