<svg width="1200" height="720" viewBox="0 0 1200 720" fill="none" xmlns="http://www.w3.org/2000/svg">
  <rect width="1200" height="720" fill="#F7F7F8"/>
  <rect x="80" y="60" width="340" height="280" rx="12" fill="white" stroke="#E5E5E7" stroke-width="2"/>
  <rect x="120" y="100" width="260" height="180" rx="8" fill="#F0F0F2"/>
  <circle cx="250" cy="190" r="40" fill="#3A7BD5" opacity="0.2"/>
  <rect x="120" y="300" width="180" height="16" rx="4" fill="#E5E5E7"/>
  <rect x="120" y="325" width="100" height="12" rx="4" fill="#3A7BD5" opacity="0.3"/>
  <rect x="430" y="60" width="340" height="280" rx="12" fill="white" stroke="#E5E5E7" stroke-width="2"/>
  <rect x="470" y="100" width="260" height="180" rx="8" fill="#F0F0F2"/>
  <rect x="520" y="150" width="160" height="80" rx="8" fill="#3A7BD5" opacity="0.2"/>
  <rect x="470" y="300" width="180" height="16" rx="4" fill="#E5E5E7"/>
  <rect x="470" y="325" width="100" height="12" rx="4" fill="#3A7BD5" opacity="0.3"/>
  <rect x="780" y="60" width="340" height="280" rx="12" fill="white" stroke="#E5E5E7" stroke-width="2"/>
  <rect x="820" y="100" width="260" height="180" rx="8" fill="#F0F0F2"/>
  <circle cx="870" cy="160" r="25" fill="#3A7BD5" opacity="0.2"/>
  <circle cx="950" cy="160" r="25" fill="#3A7BD5" opacity="0.2"/>
  <circle cx="1030" cy="160" r="25" fill="#3A7BD5" opacity="0.2"/>
  <rect x="820" y="300" width="180" height="16" rx="4" fill="#E5E5E7"/>
  <rect x="820" y="325" width="100" height="12" rx="4" fill="#3A7BD5" opacity="0.3"/>
  <rect x="80" y="380" width="340" height="280" rx="12" fill="white" stroke="#E5E5E7" stroke-width="2"/>
  <rect x="120" y="420" width="260" height="180" rx="8" fill="#F0F0F2"/>
  <rect x="160" y="470" width="180" height="80" rx="40" fill="#3A7BD5" opacity="0.2"/>
  <rect x="120" y="620" width="180" height="16" rx="4" fill="#E5E5E7"/>
  <rect x="120" y="645" width="100" height="12" rx="4" fill="#3A7BD5" opacity="0.3"/>
  <rect x="430" y="380" width="340" height="280" rx="12" fill="white" stroke="#E5E5E7" stroke-width="2"/>
  <rect x="470" y="420" width="260" height="180" rx="8" fill="#F0F0F2"/>
  <rect x="520" y="460" width="60" height="100" rx="8" fill="#3A7BD5" opacity="0.2"/>
  <rect x="595" y="460" width="60" height="100" rx="8" fill="#3A7BD5" opacity="0.2"/>
  <rect x="470" y="620" width="180" height="16" rx="4" fill="#E5E5E7"/>
  <rect x="470" y="645" width="100" height="12" rx="4" fill="#3A7BD5" opacity="0.3"/>
  <rect x="780" y="380" width="340" height="280" rx="12" fill="white" stroke="#E5E5E7" stroke-width="2"/>
  <rect x="820" y="420" width="260" height="180" rx="8" fill="#F0F0F2"/>
  <circle cx="950" cy="510" r="50" fill="#3A7BD5" opacity="0.2"/>
  <rect x="820" y="620" width="180" height="16" rx="4" fill="#E5E5E7"/>
  <rect x="820" y="645" width="100" height="12" rx="4" fill="#3A7BD5" opacity="0.3"/>
</svg>
